<?xml version="1.0" encoding="utf-8"?>
<!-- Generator: Adobe Illustrator 19.2.1, SVG Export Plug-In . SVG Version: 6.00 Build 0)  -->
<svg version="1.1" id="layer" xmlns="http://www.w3.org/2000/svg" xmlns:xlink="http://www.w3.org/1999/xlink" x="0px" y="0px"
	 viewBox="0 0 652 652" style="enable-background:new 0 0 652 652;" xml:space="preserve">
<style type="text/css">
	.st0{fill:#002639;}
	.st1{fill:#5890AA;}
</style>
<path class="st0" d="M206,561.1h1.6c3.7,0,9.9,0.2,9.9-5.1c0-5.8-6.2-5.2-10.2-5.2H206V561.1z M206,541.5h1.4c3.3,0,6.7-0.6,6.7-4.6
	c0-4.4-3.9-4.6-7.2-4.6H206V541.5z M193.6,570.6v-47.9h17.8c8.5,0,14.2,3.3,14.2,12.4c0,4.3-1.4,7.8-5.3,9.8v0.1
	c6.9,0.9,9.8,5.5,9.8,12.2c0,10-8.6,13.3-17.3,13.3H193.6z"/>
<path class="st0" d="M247.7,538v17.4c0,4.1,1,7,5.8,7c4.8,0,5.8-2.9,5.8-7V538h11.6v19.6c0,10.7-7.6,14-17.3,14
	c-9.8,0-17.3-3.3-17.3-14V538H247.7z"/>
<path class="st0" d="M289.7,543.4h0.1c2.2-4,6-5.8,10.5-5.8h2.2v11.1c-1.6-0.9-3.1-1.1-4.9-1.1c-6.4,0-8,4.3-8,9.8v13.2h-11.6V538
	h11.6V543.4z"/>
<path class="st0" d="M330,549.6c-0.6-3.1-3.4-5.2-6.5-5.2c-3.4,0-6.2,1.8-6.9,5.2H330z M340.8,556.3h-24.3c0,4.7,2.5,7.2,7.2,7.2
	c2.5,0,4.3-0.8,5.5-3h11.1c-1.8,7.7-9.1,11.2-16.6,11.2c-10.8,0-18.9-6.1-18.9-17.3c0-10.9,7.4-17.4,18-17.4
	c11.3,0,17.8,7,17.8,18.1V556.3z"/>
<path class="st0" d="M356,554.3c0,4.1,2.7,7.3,7.4,7.3c4.7,0,7.4-3.2,7.4-7.3c0-4-2.7-7.4-7.4-7.4C358.7,547,356,550.3,356,554.3
	 M382.1,570.6h-11.6V567h-0.1c-2,3.2-6,4.7-9.8,4.7c-9.6,0-16.4-8.1-16.4-17.4c0-9.3,6.7-17.3,16.3-17.3c3.7,0,7.7,1.4,10.1,4.3V538
	h11.6V570.6z"/>
<path class="st0" d="M400.7,538v17.4c0,4.1,1,7,5.8,7c4.8,0,5.8-2.9,5.8-7V538h11.6v19.6c0,10.7-7.6,14-17.3,14
	c-9.8,0-17.3-3.3-17.3-14V538H400.7z"/>
<rect x="327.3" y="338.4" class="st1" width="11.6" height="32.6"/>
<rect x="193.6" y="317.6" class="st1" width="11.6" height="53.4"/>
<g>
	<path class="st1" d="M186.5,371h-11.6v-3.6h-0.1c-2,3.2-6,4.7-9.8,4.7c-9.6,0-16.4-8.1-16.4-17.4c0-9.3,6.7-17.3,16.3-17.3
		c3.8,0,7.7,1.4,10.1,4.3v-3.2h11.6V371z M160.4,354.8c0,4.1,2.7,7.3,7.4,7.3c4.7,0,7.4-3.2,7.4-7.3c0-4-2.7-7.4-7.4-7.4
		C163.1,347.4,160.4,350.7,160.4,354.8"/>
	<path class="st1" d="M248.1,371h-11.6v-3.6h-0.1c-2,3.2-6,4.7-9.8,4.7c-9.6,0-16.4-8.1-16.4-17.4c0-9.3,6.7-17.3,16.3-17.3
		c3.7,0,7.7,1.4,10.1,4.3v-3.2h11.6V371z M222,354.8c0,4.1,2.7,7.3,7.4,7.3c4.7,0,7.4-3.2,7.4-7.3c0-4-2.7-7.4-7.4-7.4
		C224.7,347.4,222,350.7,222,354.8"/>
	<path class="st1" d="M316.9,346.8c-1.8-1-4.3-1.6-6.2-1.6c-1.3,0-3.6,0.6-3.6,2.2c0,2.2,3.6,2.5,5.2,2.9c5.4,1.1,9.5,3.6,9.5,9.6
		c0,8.6-7.8,12.1-15.4,12.1c-4.6,0-9.2-1.3-13.1-3.7l4.2-8.1c2.3,1.6,6.3,3.3,9.1,3.3c1.5,0,3.6-0.7,3.6-2.5c0-2.5-3.6-2.7-7.2-3.6
		c-3.6-1-7.2-2.7-7.2-8.6c0-8,7.2-11.5,14.4-11.5c3.7,0,7.4,0.6,10.7,2.1L316.9,346.8z"/>
	<path class="st1" d="M381.2,371h-11.6v-3.6h-0.1c-2,3.2-6,4.7-9.8,4.7c-9.6,0-16.4-8.1-16.4-17.4c0-9.3,6.7-17.3,16.3-17.3
		c3.7,0,7.7,1.4,10.1,4.3v-3.2h11.6V371z M355.1,354.8c0,4.1,2.7,7.3,7.4,7.3c4.7,0,7.4-3.2,7.4-7.3c0-4-2.7-7.4-7.4-7.4
		C357.9,347.4,355.1,350.7,355.1,354.8"/>
</g>
<polygon class="st1" points="93.7,323.2 105.9,323.2 115.6,348.7 125.9,323.2 138.3,323.2 145.5,371 133.1,371 129.6,343.5 
	129.5,343.5 118,371 113,371 102.1,343.5 101.9,343.5 97.9,371 85.6,371 "/>
<polygon class="st1" points="257.5,384.8 270.4,384.8 295.2,338.4 282.1,338.4 273.6,355.1 264.9,338.4 251.5,338.4 267.3,366.6 "/>
<g>
	<path class="st1" d="M339.6,321.6c0,3.6-2.9,6.5-6.5,6.5c-3.6,0-6.5-2.9-6.5-6.5c0-3.6,2.9-6.5,6.5-6.5
		C336.7,315.1,339.6,318,339.6,321.6"/>
	<path class="st0" d="M472.4,321.6c0,3.6-2.9,6.5-6.5,6.5c-3.6,0-6.5-2.9-6.5-6.5c0-3.6,2.9-6.5,6.5-6.5
		C469.5,315.1,472.4,318,472.4,321.6"/>
	<path class="st0" d="M450.2,321.6c0,3.6-2.9,6.5-6.5,6.5c-3.6,0-6.5-2.9-6.5-6.5c0-3.6,2.9-6.5,6.5-6.5
		C447.3,315.1,450.2,318,450.2,321.6"/>
	<path class="st0" d="M428.1,321.6c0,3.6-2.9,6.5-6.5,6.5c-3.6,0-6.5-2.9-6.5-6.5c0-3.6,2.9-6.5,6.5-6.5
		C425.2,315.1,428.1,318,428.1,321.6"/>
	<path class="st0" d="M406,365.9c0,3.6-2.9,6.5-6.5,6.5c-3.6,0-6.5-2.9-6.5-6.5c0-3.6,2.9-6.5,6.5-6.5
		C403.1,359.4,406,362.3,406,365.9"/>
	<path class="st0" d="M428.1,321.6c0,3.6-2.9,6.5-6.5,6.5c-3.6,0-6.5-2.9-6.5-6.5c0-3.6,2.9-6.5,6.5-6.5
		C425.2,315.1,428.1,318,428.1,321.6"/>
	<path class="st0" d="M428.1,343.8c0,3.6-2.9,6.5-6.5,6.5c-3.6,0-6.5-2.9-6.5-6.5c0-3.6,2.9-6.5,6.5-6.5
		C425.2,337.3,428.1,340.2,428.1,343.8"/>
	<path class="st0" d="M428.1,365.9c0,3.6-2.9,6.5-6.5,6.5c-3.6,0-6.5-2.9-6.5-6.5c0-3.6,2.9-6.5,6.5-6.5
		C425.2,359.4,428.1,362.3,428.1,365.9"/>
	<path class="st0" d="M450.2,321.6c0,3.6-2.9,6.5-6.5,6.5c-3.6,0-6.5-2.9-6.5-6.5c0-3.6,2.9-6.5,6.5-6.5
		C447.3,315.1,450.2,318,450.2,321.6"/>
	<path class="st0" d="M450.2,343.8c0,3.6-2.9,6.5-6.5,6.5c-3.6,0-6.5-2.9-6.5-6.5c0-3.6,2.9-6.5,6.5-6.5
		C447.3,337.3,450.2,340.2,450.2,343.8"/>
	<path class="st0" d="M450.2,365.9c0,3.6-2.9,6.5-6.5,6.5c-3.6,0-6.5-2.9-6.5-6.5c0-3.6,2.9-6.5,6.5-6.5
		C447.3,359.4,450.2,362.3,450.2,365.9"/>
	<path class="st0" d="M472.4,321.6c0,3.6-2.9,6.5-6.5,6.5c-3.6,0-6.5-2.9-6.5-6.5c0-3.6,2.9-6.5,6.5-6.5
		C469.5,315.1,472.4,318,472.4,321.6"/>
	<path class="st0" d="M472.4,321.6c0,3.6-2.9,6.5-6.5,6.5c-3.6,0-6.5-2.9-6.5-6.5c0-3.6,2.9-6.5,6.5-6.5
		C469.5,315.1,472.4,318,472.4,321.6"/>
	<path class="st0" d="M450.2,321.6c0,3.6-2.9,6.5-6.5,6.5c-3.6,0-6.5-2.9-6.5-6.5c0-3.6,2.9-6.5,6.5-6.5
		C447.3,315.1,450.2,318,450.2,321.6"/>
	<path class="st0" d="M428.1,321.6c0,3.6-2.9,6.5-6.5,6.5c-3.6,0-6.5-2.9-6.5-6.5c0-3.6,2.9-6.5,6.5-6.5
		C425.2,315.1,428.1,318,428.1,321.6"/>
	<path class="st0" d="M428.1,321.6c0,3.6-2.9,6.5-6.5,6.5c-3.6,0-6.5-2.9-6.5-6.5c0-3.6,2.9-6.5,6.5-6.5
		C425.2,315.1,428.1,318,428.1,321.6"/>
	<path class="st1" d="M339.6,299.5c0,3.6-2.9,6.5-6.5,6.5c-3.6,0-6.5-2.9-6.5-6.5c0-3.6,2.9-6.5,6.5-6.5
		C336.7,293,339.6,295.9,339.6,299.5"/>
	<path class="st0" d="M472.4,299.5c0,3.6-2.9,6.5-6.5,6.5c-3.6,0-6.5-2.9-6.5-6.5c0-3.6,2.9-6.5,6.5-6.5
		C469.5,293,472.4,295.9,472.4,299.5"/>
	<path class="st0" d="M450.2,299.5c0,3.6-2.9,6.5-6.5,6.5c-3.6,0-6.5-2.9-6.5-6.5c0-3.6,2.9-6.5,6.5-6.5
		C447.3,293,450.2,295.9,450.2,299.5"/>
	<path class="st0" d="M428.1,299.5c0,3.6-2.9,6.5-6.5,6.5c-3.6,0-6.5-2.9-6.5-6.5c0-3.6,2.9-6.5,6.5-6.5
		C425.2,293,428.1,295.9,428.1,299.5"/>
	<path class="st1" d="M383.8,299.5c0,3.6-2.9,6.5-6.5,6.5c-3.6,0-6.5-2.9-6.5-6.5c0-3.6,2.9-6.5,6.5-6.5
		C380.9,293,383.8,295.9,383.8,299.5"/>
	<path class="st1" d="M361.7,299.5c0,3.6-2.9,6.5-6.5,6.5c-3.6,0-6.5-2.9-6.5-6.5c0-3.6,2.9-6.5,6.5-6.5
		C358.8,293,361.7,295.9,361.7,299.5"/>
	<path class="st0" d="M428.1,299.5c0,3.6-2.9,6.5-6.5,6.5c-3.6,0-6.5-2.9-6.5-6.5c0-3.6,2.9-6.5,6.5-6.5
		C425.2,293,428.1,295.9,428.1,299.5"/>
	<path class="st1" d="M339.6,277.4c0,3.6-2.9,6.5-6.5,6.5c-3.6,0-6.5-2.9-6.5-6.5c0-3.6,2.9-6.5,6.5-6.5
		C336.7,270.9,339.6,273.8,339.6,277.4"/>
	<path class="st0" d="M472.4,277.4c0,3.6-2.9,6.5-6.5,6.5c-3.6,0-6.5-2.9-6.5-6.5c0-3.6,2.9-6.5,6.5-6.5
		C469.5,270.9,472.4,273.8,472.4,277.4"/>
	<path class="st0" d="M450.2,277.4c0,3.6-2.9,6.5-6.5,6.5c-3.6,0-6.5-2.9-6.5-6.5c0-3.6,2.9-6.5,6.5-6.5
		C447.3,270.9,450.2,273.8,450.2,277.4"/>
	<path class="st0" d="M428.1,277.4c0,3.6-2.9,6.5-6.5,6.5c-3.6,0-6.5-2.9-6.5-6.5c0-3.6,2.9-6.5,6.5-6.5
		C425.2,270.9,428.1,273.8,428.1,277.4"/>
	<path class="st1" d="M383.8,277.4c0,3.6-2.9,6.5-6.5,6.5c-3.6,0-6.5-2.9-6.5-6.5c0-3.6,2.9-6.5,6.5-6.5
		C380.9,270.9,383.8,273.8,383.8,277.4"/>
	<path class="st1" d="M361.7,277.4c0,3.6-2.9,6.5-6.5,6.5c-3.6,0-6.5-2.9-6.5-6.5c0-3.6,2.9-6.5,6.5-6.5
		C358.8,270.9,361.7,273.8,361.7,277.4"/>
	<path class="st0" d="M428.1,277.4c0,3.6-2.9,6.5-6.5,6.5c-3.6,0-6.5-2.9-6.5-6.5c0-3.6,2.9-6.5,6.5-6.5
		C425.2,270.9,428.1,273.8,428.1,277.4"/>
	<path class="st1" d="M339.6,255.2c0,3.6-2.9,6.5-6.5,6.5c-3.6,0-6.5-2.9-6.5-6.5c0-3.6,2.9-6.5,6.5-6.5
		C336.7,248.7,339.6,251.6,339.6,255.2"/>
	<path class="st0" d="M472.4,255.2c0,3.6-2.9,6.5-6.5,6.5c-3.6,0-6.5-2.9-6.5-6.5c0-3.6,2.9-6.5,6.5-6.5
		C469.5,248.7,472.4,251.6,472.4,255.2"/>
	<path class="st0" d="M450.2,255.2c0,3.6-2.9,6.5-6.5,6.5c-3.6,0-6.5-2.9-6.5-6.5c0-3.6,2.9-6.5,6.5-6.5
		C447.3,248.7,450.2,251.6,450.2,255.2"/>
	<path class="st0" d="M428.1,255.2c0,3.6-2.9,6.5-6.5,6.5c-3.6,0-6.5-2.9-6.5-6.5c0-3.6,2.9-6.5,6.5-6.5
		C425.2,248.7,428.1,251.6,428.1,255.2"/>
	<path class="st1" d="M383.8,255.2c0,3.6-2.9,6.5-6.5,6.5c-3.6,0-6.5-2.9-6.5-6.5c0-3.6,2.9-6.5,6.5-6.5
		C380.9,248.7,383.8,251.6,383.8,255.2"/>
	<path class="st1" d="M361.7,255.2c0,3.6-2.9,6.5-6.5,6.5c-3.6,0-6.5-2.9-6.5-6.5c0-3.6,2.9-6.5,6.5-6.5
		C358.8,248.7,361.7,251.6,361.7,255.2"/>
	<path class="st1" d="M339.6,233.1c0,3.6-2.9,6.5-6.5,6.5c-3.6,0-6.5-2.9-6.5-6.5c0-3.6,2.9-6.5,6.5-6.5
		C336.7,226.6,339.6,229.5,339.6,233.1"/>
	<path class="st0" d="M472.4,233.1c0,3.6-2.9,6.5-6.5,6.5c-3.6,0-6.5-2.9-6.5-6.5c0-3.6,2.9-6.5,6.5-6.5
		C469.5,226.6,472.4,229.5,472.4,233.1"/>
	<path class="st0" d="M450.2,233.1c0,3.6-2.9,6.5-6.5,6.5c-3.6,0-6.5-2.9-6.5-6.5c0-3.6,2.9-6.5,6.5-6.5
		C447.3,226.6,450.2,229.5,450.2,233.1"/>
	<path class="st0" d="M428.1,233.1c0,3.6-2.9,6.5-6.5,6.5c-3.6,0-6.5-2.9-6.5-6.5c0-3.6,2.9-6.5,6.5-6.5
		C425.2,226.6,428.1,229.5,428.1,233.1"/>
	<path class="st1" d="M383.8,233.1c0,3.6-2.9,6.5-6.5,6.5c-3.6,0-6.5-2.9-6.5-6.5c0-3.6,2.9-6.5,6.5-6.5
		C380.9,226.6,383.8,229.5,383.8,233.1"/>
	<path class="st1" d="M361.7,233.1c0,3.6-2.9,6.5-6.5,6.5c-3.6,0-6.5-2.9-6.5-6.5c0-3.6,2.9-6.5,6.5-6.5
		C358.8,226.6,361.7,229.5,361.7,233.1"/>
	<path class="st0" d="M472.4,211c0,3.6-2.9,6.5-6.5,6.5c-3.6,0-6.5-2.9-6.5-6.5c0-3.6,2.9-6.5,6.5-6.5
		C469.5,204.5,472.4,207.4,472.4,211"/>
	<path class="st0" d="M450.2,211c0,3.6-2.9,6.5-6.5,6.5c-3.6,0-6.5-2.9-6.5-6.5c0-3.6,2.9-6.5,6.5-6.5
		C447.3,204.5,450.2,207.4,450.2,211"/>
	<path class="st1" d="M383.8,211c0,3.6-2.9,6.5-6.5,6.5c-3.6,0-6.5-2.9-6.5-6.5c0-3.6,2.9-6.5,6.5-6.5
		C380.9,204.5,383.8,207.4,383.8,211"/>
	<path class="st1" d="M361.7,211c0,3.6-2.9,6.5-6.5,6.5c-3.6,0-6.5-2.9-6.5-6.5c0-3.6,2.9-6.5,6.5-6.5
		C358.8,204.5,361.7,207.4,361.7,211"/>
	<path class="st0" d="M472.4,188.8c0,3.6-2.9,6.5-6.5,6.5c-3.6,0-6.5-2.9-6.5-6.5c0-3.6,2.9-6.5,6.5-6.5
		C469.5,182.3,472.4,185.2,472.4,188.8"/>
	<path class="st0" d="M450.2,188.8c0,3.6-2.9,6.5-6.5,6.5c-3.6,0-6.5-2.9-6.5-6.5c0-3.6,2.9-6.5,6.5-6.5
		C447.3,182.3,450.2,185.2,450.2,188.8"/>
	<path class="st1" d="M383.8,188.8c0,3.6-2.9,6.5-6.5,6.5c-3.6,0-6.5-2.9-6.5-6.5c0-3.6,2.9-6.5,6.5-6.5
		C380.9,182.3,383.8,185.2,383.8,188.8"/>
	<path class="st1" d="M361.7,188.8c0,3.6-2.9,6.5-6.5,6.5c-3.6,0-6.5-2.9-6.5-6.5c0-3.6,2.9-6.5,6.5-6.5
		C358.8,182.3,361.7,185.2,361.7,188.8"/>
	<path class="st0" d="M472.4,166.7c0,3.6-2.9,6.5-6.5,6.5c-3.6,0-6.5-2.9-6.5-6.5c0-3.6,2.9-6.5,6.5-6.5
		C469.5,160.2,472.4,163.1,472.4,166.7"/>
	<path class="st0" d="M450.2,166.7c0,3.6-2.9,6.5-6.5,6.5c-3.6,0-6.5-2.9-6.5-6.5c0-3.6,2.9-6.5,6.5-6.5
		C447.3,160.2,450.2,163.1,450.2,166.7"/>
	<path class="st1" d="M383.8,166.7c0,3.6-2.9,6.5-6.5,6.5c-3.6,0-6.5-2.9-6.5-6.5c0-3.6,2.9-6.5,6.5-6.5
		C380.9,160.2,383.8,163.1,383.8,166.7"/>
	<path class="st1" d="M361.7,166.7c0,3.6-2.9,6.5-6.5,6.5c-3.6,0-6.5-2.9-6.5-6.5c0-3.6,2.9-6.5,6.5-6.5
		C358.8,160.2,361.7,163.1,361.7,166.7"/>
	<path class="st0" d="M472.4,144.6c0,3.6-2.9,6.5-6.5,6.5c-3.6,0-6.5-2.9-6.5-6.5c0-3.6,2.9-6.5,6.5-6.5
		C469.5,138.1,472.4,141,472.4,144.6"/>
	<path class="st1" d="M383.8,144.6c0,3.6-2.9,6.5-6.5,6.5c-3.6,0-6.5-2.9-6.5-6.5c0-3.6,2.9-6.5,6.5-6.5
		C380.9,138.1,383.8,141,383.8,144.6"/>
	<path class="st0" d="M472.4,78.2c0,3.6-2.9,6.5-6.5,6.5c-3.6,0-6.5-2.9-6.5-6.5c0-3.6,2.9-6.5,6.5-6.5
		C469.5,71.7,472.4,74.6,472.4,78.2"/>
	<path class="st1" d="M383.8,78.2c0,3.6-2.9,6.5-6.5,6.5c-3.6,0-6.5-2.9-6.5-6.5c0-3.6,2.9-6.5,6.5-6.5
		C380.9,71.7,383.8,74.6,383.8,78.2"/>
	<path class="st0" d="M472.4,343.8c0,3.6-2.9,6.5-6.5,6.5c-3.6,0-6.5-2.9-6.5-6.5c0-3.6,2.9-6.5,6.5-6.5
		C469.5,337.3,472.4,340.2,472.4,343.8"/>
	<path class="st0" d="M472.4,388c0,3.6-2.9,6.5-6.5,6.5c-3.6,0-6.5-2.9-6.5-6.5c0-3.6,2.9-6.5,6.5-6.5
		C469.5,381.6,472.4,384.4,472.4,388"/>
	<path class="st0" d="M472.4,365.9c0,3.6-2.9,6.5-6.5,6.5c-3.6,0-6.5-2.9-6.5-6.5c0-3.6,2.9-6.5,6.5-6.5
		C469.5,359.4,472.4,362.3,472.4,365.9"/>
</g>
<rect x="460.1" y="404.8" class="st0" width="11.6" height="32.6"/>
<g>
	<path class="st0" d="M227.9,405.6c-2.5-3.4-6.7-5.3-10.9-5.3c-7.6,0-12.8,5.8-12.8,13.3c0,7.6,5.2,13,13,13c4.1,0,8.1-2,10.7-5.1
		v14.9c-4.1,1.3-7.1,2.2-11,2.2c-6.7,0-13-2.5-18-7.1c-5.3-4.8-7.7-11-7.7-18.1c0-6.5,2.5-12.8,7-17.5c4.7-4.8,11.5-7.7,18.2-7.7
		c4,0,7.7,0.9,11.4,2.4V405.6z"/>
	<path class="st0" d="M245.1,421.2c0,4.1,2.7,7.3,7.4,7.3c4.7,0,7.4-3.2,7.4-7.3c0-4-2.7-7.4-7.4-7.4
		C247.9,413.8,245.1,417.2,245.1,421.2 M272.2,421.2c0,11-9.1,17.3-19.6,17.3c-10.4,0-19.6-6.2-19.6-17.3c0-11.1,9.1-17.4,19.6-17.4
		C263,403.8,272.2,410,272.2,421.2"/>
	<path class="st0" d="M288.9,409h0.1c2.7-3.9,5.9-5.3,10.4-5.3c8.8,0,12.2,5.5,12.2,13.5v20.1h-11.6v-15.9c0-3.1,0.5-8.6-5.2-8.6
		c-4.7,0-6,3.5-6,7.6v16.9h-11.6v-32.6h11.6V409z"/>
</g>
<polygon class="st0" points="335,421.5 342.7,404.8 355.7,404.8 338.7,437.4 331.3,437.4 314.2,404.8 327.2,404.8 "/>
<g>
	<path class="st0" d="M379.7,416.4c-0.6-3.1-3.4-5.2-6.5-5.2c-3.4,0-6.2,1.8-6.9,5.2H379.7z M390.4,423.1h-24.3
		c0,4.7,2.5,7.2,7.2,7.2c2.5,0,4.3-0.8,5.5-3H390c-1.8,7.7-9.1,11.2-16.6,11.2c-10.8,0-18.9-6.1-18.9-17.3c0-10.9,7.4-17.4,18-17.4
		c11.3,0,17.8,7,17.8,18.1V423.1z"/>
	<path class="st0" d="M407.2,409h0.1c2.7-3.9,5.9-5.3,10.4-5.3c8.8,0,12.3,5.5,12.3,13.5v20.1h-11.6v-15.9c0-3.1,0.5-8.6-5.2-8.6
		c-4.7,0-6,3.5-6,7.6v16.9h-11.6v-32.6h11.6V409z"/>
</g>
<polygon class="st0" points="449.9,437.4 438.3,437.4 438.3,414.4 434.6,414.4 434.6,404.8 438.3,404.8 438.3,395.1 449.9,395.1 
	449.9,404.8 456.4,404.8 456.4,414.4 449.9,414.4 "/>
<g>
	<path class="st0" d="M489.1,421.2c0,4.1,2.7,7.3,7.4,7.3c4.7,0,7.4-3.2,7.4-7.3c0-4-2.7-7.4-7.4-7.4
		C491.8,413.8,489.1,417.2,489.1,421.2 M516.1,421.2c0,11-9.1,17.3-19.6,17.3c-10.4,0-19.6-6.2-19.6-17.3c0-11.1,9.1-17.4,19.6-17.4
		C507,403.8,516.1,410,516.1,421.2"/>
	<path class="st0" d="M532.1,409h0.1c2.7-3.9,5.9-5.3,10.4-5.3c8.8,0,12.2,5.5,12.2,13.5v20.1h-11.6v-15.9c0-3.1,0.5-8.6-5.2-8.6
		c-4.7,0-6,3.5-6,7.6v16.9h-11.6v-32.6h11.6V409z"/>
</g>
<rect x="419.9" y="471.5" class="st0" width="11.6" height="32.6"/>
<g>
	<path class="st0" d="M432.2,454.7c0,3.6-2.9,6.5-6.5,6.5c-3.6,0-6.5-2.9-6.5-6.5c0-3.6,2.9-6.5,6.5-6.5
		C429.3,448.3,432.2,451.1,432.2,454.7"/>
</g>
<rect x="377.9" y="471.5" class="st0" width="11.6" height="32.6"/>
<g>
	<path class="st0" d="M390.2,454.7c0,3.6-2.9,6.5-6.5,6.5c-3.6,0-6.5-2.9-6.5-6.5c0-3.6,2.9-6.5,6.5-6.5
		C387.3,448.3,390.2,451.1,390.2,454.7"/>
</g>
<rect x="315.4" y="471.5" class="st0" width="11.6" height="32.6"/>
<g>
	<path class="st0" d="M327.7,454.7c0,3.6-2.9,6.5-6.5,6.5c-3.6,0-6.5-2.9-6.5-6.5c0-3.6,2.9-6.5,6.5-6.5
		C324.8,448.3,327.7,451.1,327.7,454.7"/>
	<path class="st0" d="M155,467.8c0-2.4-1.7-4.5-4.2-4.5c-2.2,0-4,1.6-4,3.9c0,2.3,2.2,4.6,3.7,6.4C152.8,472.5,155,470.5,155,467.8
		 M145.5,484.1c-2,1.3-4.5,3-4.5,5.7c0,2.9,2.9,4.4,5.4,4.4c2.3,0,4.7-0.8,6.7-2L145.5,484.1z M159.8,499.7
		c-4.8,3.2-10.6,5.7-16.4,5.7c-8.3,0-15.4-5-15.4-13.7c0-7.2,4.3-10.7,10.3-13.3l1.1-0.5l-1-1.4c-1.5-2.1-3.4-4.4-3.4-8.3
		c0-8.3,7.2-13.1,14.9-13.1c7.6,0,15,4.8,15,13c0,6-3.9,9-8.9,11.5l6,6.4c2.3-2.1,4.5-4.3,6.3-6.8l7,6.7l-6,6.5l-0.6,0.6l10.7,11.3
		h-15.6L159.8,499.7z"/>
</g>
<polygon class="st0" points="206,466.8 206,474.8 220.1,474.8 220.1,485.3 206,485.3 206,493.6 220.8,493.6 220.8,504.1 
	193.6,504.1 193.6,456.2 220.8,456.2 220.8,466.8 "/>
<polygon class="st0" points="226.5,471.5 241.2,471.5 247,478.3 252.9,471.5 267.8,471.5 254.3,486.4 270.6,504.1 255.4,504.1 
	247,494.4 238.7,504.1 223.5,504.1 239.7,486.4 "/>
<polygon class="st0" points="409.7,504.1 398.2,504.1 398.2,481 394.4,481 394.4,471.5 398.2,471.5 398.2,461.7 409.7,461.7 
	409.7,471.5 416.3,471.5 416.3,481 409.7,481 "/>
<g>
	<path class="st0" d="M448.9,487.8c0,4.1,2.7,7.3,7.4,7.3c4.7,0,7.4-3.2,7.4-7.3c0-4-2.7-7.4-7.4-7.4
		C451.6,480.5,448.9,483.8,448.9,487.8 M475.9,487.8c0,11-9.1,17.3-19.6,17.3c-10.4,0-19.6-6.2-19.6-17.3c0-11.1,9.1-17.4,19.6-17.4
		C466.8,470.4,475.9,476.7,475.9,487.8"/>
	<path class="st0" d="M492.7,475.7h0.1c2.7-3.9,5.9-5.3,10.4-5.3c8.8,0,12.3,5.5,12.3,13.5v20.1h-11.6v-15.9c0-3.1,0.5-8.6-5.2-8.6
		c-4.7,0-6,3.5-6,7.6v16.9h-11.6v-32.6h11.6V475.7z"/>
	<path class="st0" d="M353.2,495.1c-4.7,0-7.4-3.2-7.4-7.3c0-4,2.7-7.4,7.4-7.4c4.7,0,7.4,3.4,7.4,7.4
		C360.6,492,357.9,495.1,353.2,495.1 M356.3,470.4c-3.8,0-7.6,1.4-10.1,4.3v-20h-11.6v49.4h11.6v-3.6h0.1c2.1,3.2,6,4.7,9.8,4.7
		c9.7,0,16.4-8,16.4-17.4C372.6,478.4,365.9,470.4,356.3,470.4"/>
	<path class="st0" d="M295.6,470.4c-4.5,0-7.7,1.6-10.4,5.2H285v-20.9h-11.6v49.4H285v-16.7c0-3.8,1.5-7.7,6-7.7
		c4.6,0,5.2,3.9,5.2,7.7v16.7h11.6v-19.9C307.8,475.9,303.8,470.4,295.6,470.4"/>
</g>
</svg>
