<?xml version="1.0" encoding="utf-8"?>
<!-- Generator: Adobe Illustrator 19.0.0, SVG Export Plug-In . SVG Version: 6.00 Build 0)  -->
<svg version="1.1" id="layer" xmlns="http://www.w3.org/2000/svg" xmlns:xlink="http://www.w3.org/1999/xlink" x="0px" y="0px"
	 viewBox="-153 -46 652 652" style="enable-background:new -153 -46 652 652;" xml:space="preserve">
<style type="text/css">
	.st0{fill:#003F81;}
	.st1{fill:#4BA635;}
</style>
<g>
	<path class="st0" d="M360.8,410.3H383v-25c0-4.7,0.8-8,2.5-9.9c1.7-1.8,3.8-2.8,6.5-2.8c2.4,0,4.3,0.7,5.7,2c1.3,1.4,2,3.7,2,6.9
		v28.7H422v-33.1c0-6.8-1.7-11.9-5.2-15.2c-3.5-3.3-8.2-5-14.3-5c-4.1,0-7.6,0.6-10.6,1.8c-3,1.2-6,3.2-9,6v-26.5h-22.2V410.3z"/>
	<path class="st0" d="M303.5,407.4c4.5,2.7,12,4.1,22.6,4.1c7.5,0,13.4-0.8,17.7-2.5c4.3-1.7,7.5-3.9,9.5-6.8c2-2.8,3-5.8,3-8.8
		c0-3-1-5.7-2.9-8.2c-1.9-2.5-4.7-4.4-8.3-5.7c-3.6-1.3-9.1-2.4-16.4-3.1c-4.9-0.5-8-1.1-9.5-1.8c-1.4-0.6-2.2-1.6-2.2-2.9
		c0-1.1,0.6-2.1,1.7-2.9c1.2-0.8,3-1.2,5.5-1.2c2.5,0,4.6,0.5,6.3,1.6c1.3,0.8,2.2,2,2.7,3.7l21-1.9c-1.5-3.4-3.3-6.1-5.5-8.1
		c-2.2-2-4.9-3.5-8.2-4.4c-3.3-0.9-8.4-1.4-15.3-1.4c-6.5,0-11.7,0.6-15.6,1.8c-3.9,1.2-6.9,3.1-9.2,5.6c-2.2,2.5-3.3,5.4-3.3,8.9
		c0,3.1,1,5.9,3.1,8.4c2.1,2.5,4.6,4.2,7.6,5.2c3,1,8.3,2.2,16,3.4c5.2,0.8,8.3,1.5,9.5,2c1.7,0.8,2.5,1.9,2.5,3.3
		c0,1.3-0.6,2.3-1.9,3.2c-1.6,1.1-3.9,1.7-6.9,1.7c-2.7,0-4.9-0.5-6.5-1.5c-1.6-1-2.9-2.7-3.8-5l-22,1.9
		C296.2,400.9,299,404.7,303.5,407.4"/>
</g>
<rect x="266.1" y="358.2" class="st0" width="22.2" height="52.1"/>
<rect x="266.1" y="338.4" class="st0" width="22.2" height="13.6"/>
<polygon class="st0" points="198.1,410.3 223.1,410.3 223.1,377.2 254.3,377.2 254.3,360.9 223.1,360.9 223.1,346.7 259.5,346.7 
	259.5,329.3 198.1,329.3 "/>
<g>
	<path class="st0" d="M166.5,393.8c-1.9,2-4.3,3-7.1,3c-2.7,0-4.9-1-6.7-3c-1.8-2-2.7-5.1-2.7-9.3c0-4.5,0.9-7.8,2.6-9.7
		c1.7-1.9,3.9-2.9,6.5-2.9c3,0,5.4,1,7.3,3c1.9,2,2.9,5,2.9,9.1C169.4,388.6,168.4,391.9,166.5,393.8 M169.2,338.4v25
		c-2.2-2.1-4.7-3.7-7.5-4.7c-2.8-1.1-6-1.6-9.4-1.6c-7.1,0-12.9,2.3-17.5,6.9c-4.6,4.6-6.9,11.2-6.9,19.8c0,7.7,2.1,14.3,6.2,19.7
		c4.2,5.4,10.2,8.1,18.1,8.1c3.9,0,7.5-0.8,10.7-2.3c2.4-1.1,5.1-3.4,8-6.6v7.7h20.7v-72H169.2z"/>
</g>
<rect x="99" y="338.4" class="st0" width="22.3" height="72"/>
<g>
	<path class="st0" d="M46.9,410.3h22.3v-17.4c0-8.3,1.1-14,3.4-17.1c1.6-2.2,3.9-3.2,6.8-3.2c1.5,0,3.6,0.5,6.2,1.5l6.9-14.3
		C88.6,358,85,357,81.7,357c-3.1,0-5.7,0.7-7.9,2.1c-2.1,1.4-4.2,3.9-6.2,7.6v-8.6H46.9V410.3z"/>
	<path class="st0" d="M14.8,394.7c-2,2.2-4.7,3.3-7.9,3.3c-3.1,0-5.8-1.1-7.9-3.3C-3,392.5-4,389-4,384.4c0-4.6,1.1-8,3.2-10.2
		c2.1-2.2,4.8-3.4,8-3.4c3,0,5.6,1.1,7.7,3.3c2.1,2.2,3.1,5.6,3.1,10.1C17.9,389,16.9,392.5,14.8,394.7 M33.1,366.1
		c-5.9-6-14.7-9.1-26.3-9.1c-10.1,0-18.2,2.6-24.1,7.7c-6,5.2-8.9,11.7-8.9,19.7c0,8.5,3.5,15.4,10.6,20.7
		c5.7,4.3,13.3,6.4,22.6,6.4c10.4,0,18.6-2.6,24.5-7.7c5.9-5.1,8.9-11.7,8.9-19.7C40.2,377,37.8,371,33.1,366.1"/>
</g>
<polygon class="st0" points="-116.2,409.9 -91.9,409.9 -77.8,358.9 -63.7,409.9 -39.4,409.9 -21.7,328.9 -45.1,328.9 -53.7,374 
	-66.2,328.9 -89.5,328.9 -102,374.1 -110.5,328.9 -134.1,328.9 "/>
<g>
	<path class="st1" d="M313.2,313.5c0,0,55.2-50.1,88.6-59.5c27-7.6,43.1,3.2,46.9,22.8c5.7,29.3-14.7,56.8-14.7,56.8
		s20.1-47.1-5.4-59.5c-18.3-8.8-44.6,1.6-56.1,6.4C360.7,285.4,313.2,313.5,313.2,313.5"/>
	<path class="st0" d="M342.9,177.4c0,0,27.4,36.7,2.5,63.4c-21.4,23-73.7,16.9-73.7,16.9s0.5-78,87.8-86c21.9-2,71-1,92.3,55.4
		c20,52.9-18,105.8-18,105.8s15.4-39.3-3.5-52.1c-34.3-23.5-120.3,38.7-120.3,38.7S388,278.2,419,295.2c22.2,12.1,5,54.1,5,54.1
		s60.3-54.5,36.2-132c-8.5-27.3-40.7-74.6-105.1-61.1c-97.5,20.5-88.3,105.3-88.3,105.3S314,275.2,340,258
		c21.2-14.1,24.7-26,22.4-42.8C358.6,187.6,342.9,177.4,342.9,177.4"/>
	<path class="st1" d="M393.3,239.7c6-2.8,6.7-14,1.5-24.9c-5.2-10.9-14.2-17.4-20.2-14.6c-6,2.8-6.7,14-1.5,24.9
		C378.3,236,387.3,242.5,393.3,239.7"/>
	<path class="st1" d="M270.3,266.2c0,0,26.3,7.8,61.9,0.6c25.9-5.2,57.1-17.2,76-34.7c36.2-33.4,26.5-89.6,26.5-89.6s-0.7-6.9,3.7-2
		c3.4,3.7,16.5,42-6.5,81.3c-14.9,25.5-49.5,41.6-83.6,48.7c-42.4,8.8-74.9,0.6-78-0.4C267.1,269.1,265.1,265.4,270.3,266.2"/>
	<path class="st0" d="M306.9,227.2c4.6,0,8.4-3.8,8.4-8.4c0-4.6-3.8-8.4-8.4-8.4c-4.6,0-8.4,3.7-8.4,8.4
		C298.5,223.4,302.3,227.2,306.9,227.2"/>
</g>
</svg>
